<?xml version="1.0" standalone="no"?>
<!DOCTYPE svg PUBLIC "-//W3C//DTD SVG 20010904//EN"
 "http://www.w3.org/TR/2001/REC-SVG-20010904/DTD/svg10.dtd">
<svg version="1.0" xmlns="http://www.w3.org/2000/svg"
 width="169.000000pt" height="169.000000pt" viewBox="0 0 169.000000 169.000000"
 preserveAspectRatio="xMidYMid meet">
<metadata>
Created by potrace 1.11, written by Peter Selinger 2001-2013
</metadata>
<g transform="translate(0.000000,169.000000) scale(0.100000,-0.100000)"
fill="#000000" stroke="none">
<path d="M390 1523 c-84 -21 -138 -53 -194 -114 -72 -77 -97 -145 -101 -265
-7 -205 54 -347 220 -509 63 -62 89 -86 215 -195 97 -84 83 -72 190 -170 130
-118 125 -116 153 -88 29 29 132 123 178 163 72 63 185 161 219 190 86 74 208
208 243 266 60 101 81 184 81 319 0 94 -4 125 -21 168 -94 235 -388 319 -594
170 -41 -29 -66 -55 -116 -116 l-18 -24 -40 50 c-106 131 -270 192 -415 155z"/>
</g>
</svg>
