<?xml version="1.0" standalone="no"?>
<!DOCTYPE svg PUBLIC "-//W3C//DTD SVG 20010904//EN"
 "http://www.w3.org/TR/2001/REC-SVG-20010904/DTD/svg10.dtd">
<svg version="1.0" xmlns="http://www.w3.org/2000/svg"
 width="512.000000pt" height="512.000000pt" viewBox="0 0 512.000000 512.000000"
 preserveAspectRatio="xMidYMid meet">
<metadata>
Created by potrace 1.11, written by Peter Selinger 2001-2013
</metadata>
<g transform="translate(0.000000,512.000000) scale(0.100000,-0.100000)"
fill="#000000" stroke="none">
<path d="M1609 4285 c-2 -1 -26 -5 -54 -8 -105 -10 -247 -58 -359 -121 -289
-161 -487 -444 -542 -771 -20 -123 -12 -317 20 -440 31 -120 107 -278 180
-375 44 -59 422 -445 1594 -1626 l112 -114 158 159 c1228 1241 1505 1524 1550
1583 71 94 145 250 178 373 36 135 41 336 13 476 -87 424 -402 747 -825 845
-85 20 -319 26 -403 11 -89 -17 -218 -59 -295 -98 -120 -61 -183 -106 -284
-206 l-92 -91 -88 87 c-167 167 -345 261 -581 305 -64 12 -273 21 -282 11z
m291 -169 c236 -54 419 -175 561 -371 24 -34 55 -84 69 -113 14 -29 27 -52 30
-52 3 0 15 20 27 43 82 168 242 331 408 414 352 177 783 107 1061 -173 263
-266 339 -641 202 -997 -69 -178 -40 -147 -1286 -1401 l-413 -416 -137 139
c-75 76 -421 426 -769 777 -348 352 -652 666 -676 699 -202 275 -238 628 -97
931 137 294 399 490 716 532 82 11 226 5 304 -12z"/>
</g>
</svg>
